<svg width="186" height="72" viewBox="0 0 186 72" fill="none" xmlns="http://www.w3.org/2000/svg">
<path d="M0 71.6573H9.32372V1.28332H0V71.6573Z" fill="#D81D99"/>
<path d="M39.0663 31.8805C47.1405 31.8805 53.3883 38.3948 53.3883 47.2779C53.3883 56.2597 47.4288 62.2805 38.5857 62.2805C30.1271 62.2805 24.1676 56.2597 24.1676 47.7714C24.1676 38.2961 30.7999 31.8805 39.0663 31.8805ZM58.7711 59.6156L62.3275 70.4727H71.9396L63.1926 43.626C61.4625 38.1974 59.8284 33.361 55.9836 29.413C51.562 24.9714 46.0831 22.7013 39.3547 22.7013C25.1288 22.7013 14.7478 33.5584 14.7478 47.1792C14.7478 61.3922 24.5521 71.6571 38.5857 71.6571C47.525 71.6571 54.5418 67.5117 58.7711 59.6156Z" fill="#D81D99"/>
<path d="M75.0267 70.374H84.1582V48.8571C95.5005 49.0545 101.268 55.4701 101.268 68.2026C101.268 68.8935 101.172 69.5844 101.172 70.374H110.399C110.399 69.7818 110.399 69.2883 110.399 68.6961C110.399 54.6805 105.593 46.1922 95.7888 42.935L110.399 23.9844H99.2492L84.1582 43.8234V0H75.0267V70.374Z" fill="#D81D99"/>
<path d="M124.903 23.9844H115.675V49.548C115.675 64.2545 122.212 71.5584 135.668 71.5584C142.974 71.5584 148.26 69.387 152.105 64.2545C155.469 59.813 155.662 55.2727 155.662 49.548V23.9844H146.434V49.3506C146.434 57.8389 142.589 62.2805 135.572 62.2805C128.652 62.2805 124.903 57.8389 124.903 49.3506V23.9844Z" fill="#D81D99"/>
<path d="M161.354 32.1766H165.968V49.548C165.968 62.774 172.985 70.1766 185.769 70.374V60.8987C177.887 60.1091 175.004 55.8649 175.004 46.7844V32.1766H185.192V23.9844H175.004V13.0286H165.968V23.9844H161.354V32.1766Z" fill="#D81D99"/>
</svg>
